<svg width="280" height="400" viewBox="0 0 280 400" fill="none" xmlns="http://www.w3.org/2000/svg">
<rect width="280" height="400" rx="20" fill="#E0E0E0"/>
<path d="M96.6394 174.2H109.311V176.24H99.0154V181.04H104.247C106.247 181.04 107.767 181.456 108.807 182.288C109.847 183.12 110.367 184.32 110.367 185.888C110.367 187.536 109.799 188.8 108.663 189.68C107.543 190.56 105.935 191 103.839 191H96.6394V174.2ZM103.743 189.104C105.119 189.104 106.167 188.84 106.887 188.312C107.607 187.784 107.967 187.008 107.967 185.984C107.967 183.952 106.559 182.936 103.743 182.936H99.0154V189.104H103.743ZM118.346 178.16C120.106 178.16 121.45 178.592 122.378 179.456C123.322 180.32 123.794 181.608 123.794 183.32V191H121.61V189.32C121.226 189.912 120.674 190.368 119.954 190.688C119.25 190.992 118.41 191.144 117.434 191.144C116.01 191.144 114.866 190.8 114.002 190.112C113.154 189.424 112.73 188.52 112.73 187.4C112.73 186.28 113.138 185.384 113.954 184.712C114.77 184.024 116.066 183.68 117.842 183.68H121.49V183.224C121.49 182.232 121.202 181.472 120.626 180.944C120.05 180.416 119.202 180.152 118.082 180.152C117.33 180.152 116.594 180.28 115.874 180.536C115.154 180.776 114.546 181.104 114.05 181.52L113.09 179.792C113.746 179.264 114.53 178.864 115.442 178.592C116.354 178.304 117.322 178.16 118.346 178.16ZM117.818 189.368C118.698 189.368 119.458 189.176 120.098 188.792C120.738 188.392 121.202 187.832 121.49 187.112V185.336H117.938C115.986 185.336 115.01 185.992 115.01 187.304C115.01 187.944 115.258 188.448 115.754 188.816C116.25 189.184 116.938 189.368 117.818 189.368ZM127.943 178.28H130.247V183.68H137.495V178.28H139.799V191H137.495V185.672H130.247V191H127.943V178.28ZM144.279 178.28H146.583V183.68H153.831V178.28H156.135V191H153.831V185.672H146.583V191H144.279V178.28ZM172.111 184.712C172.111 184.888 172.095 185.12 172.063 185.408H161.743C161.887 186.528 162.375 187.432 163.207 188.12C164.055 188.792 165.103 189.128 166.351 189.128C167.871 189.128 169.095 188.616 170.023 187.592L171.295 189.08C170.719 189.752 169.999 190.264 169.135 190.616C168.287 190.968 167.335 191.144 166.279 191.144C164.935 191.144 163.743 190.872 162.703 190.328C161.663 189.768 160.855 188.992 160.279 188C159.719 187.008 159.439 185.888 159.439 184.64C159.439 183.408 159.711 182.296 160.255 181.304C160.815 180.312 161.575 179.544 162.535 179C163.511 178.44 164.607 178.16 165.823 178.16C167.039 178.16 168.119 178.44 169.063 179C170.023 179.544 170.767 180.312 171.295 181.304C171.839 182.296 172.111 183.432 172.111 184.712ZM165.823 180.104C164.719 180.104 163.791 180.44 163.039 181.112C162.303 181.784 161.871 182.664 161.743 183.752H169.903C169.775 182.68 169.335 181.808 168.583 181.136C167.847 180.448 166.927 180.104 165.823 180.104ZM182.429 178.16C183.661 178.16 184.765 178.432 185.741 178.976C186.717 179.52 187.477 180.28 188.021 181.256C188.581 182.232 188.861 183.36 188.861 184.64C188.861 185.92 188.581 187.056 188.021 188.048C187.477 189.024 186.717 189.784 185.741 190.328C184.765 190.872 183.661 191.144 182.429 191.144C181.517 191.144 180.677 190.968 179.909 190.616C179.157 190.264 178.517 189.752 177.989 189.08V195.656H175.685V178.28H177.893V180.296C178.405 179.592 179.053 179.064 179.837 178.712C180.621 178.344 181.485 178.16 182.429 178.16ZM182.237 189.128C183.053 189.128 183.781 188.944 184.421 188.576C185.077 188.192 185.589 187.664 185.957 186.992C186.341 186.304 186.533 185.52 186.533 184.64C186.533 183.76 186.341 182.984 185.957 182.312C185.589 181.624 185.077 181.096 184.421 180.728C183.781 180.36 183.053 180.176 182.237 180.176C181.437 180.176 180.709 180.368 180.053 180.752C179.413 181.12 178.901 181.64 178.517 182.312C178.149 182.984 177.965 183.76 177.965 184.64C177.965 185.52 178.149 186.304 178.517 186.992C178.885 187.664 179.397 188.192 180.053 188.576C180.709 188.944 181.437 189.128 182.237 189.128ZM102.331 224.912V227H90.2591V225.368L97.0991 218.768C97.9311 217.968 98.4911 217.28 98.7791 216.704C99.0671 216.112 99.2111 215.52 99.2111 214.928C99.2111 214.048 98.8991 213.368 98.2751 212.888C97.6671 212.392 96.7871 212.144 95.6351 212.144C93.7791 212.144 92.3471 212.752 91.3391 213.968L89.7071 212.552C90.3631 211.752 91.2191 211.128 92.2751 210.68C93.3471 210.232 94.5391 210.008 95.8511 210.008C97.6111 210.008 99.0111 210.432 100.051 211.28C101.091 212.112 101.611 213.248 101.611 214.688C101.611 215.584 101.419 216.432 101.035 217.232C100.651 218.032 99.9231 218.944 98.8511 219.968L93.7151 224.912H102.331ZM114.576 218.192C115.536 218.56 116.272 219.088 116.784 219.776C117.296 220.464 117.552 221.288 117.552 222.248C117.552 223.256 117.28 224.136 116.736 224.888C116.192 225.624 115.416 226.192 114.408 226.592C113.4 226.992 112.216 227.192 110.856 227.192C109.512 227.192 108.336 226.992 107.328 226.592C106.336 226.192 105.568 225.624 105.024 224.888C104.48 224.136 104.208 223.256 104.208 222.248C104.208 221.288 104.456 220.464 104.952 219.776C105.464 219.088 106.2 218.56 107.16 218.192C106.392 217.824 105.808 217.336 105.408 216.728C105.008 216.12 104.808 215.4 104.808 214.568C104.808 213.64 105.056 212.832 105.552 212.144C106.064 211.456 106.776 210.928 107.688 210.56C108.6 210.192 109.656 210.008 110.856 210.008C112.072 210.008 113.136 210.192 114.048 210.56C114.976 210.928 115.688 211.456 116.184 212.144C116.696 212.832 116.952 213.64 116.952 214.568C116.952 215.384 116.744 216.104 116.328 216.728C115.928 217.336 115.344 217.824 114.576 218.192ZM110.856 211.952C109.72 211.952 108.824 212.2 108.168 212.696C107.512 213.176 107.184 213.832 107.184 214.664C107.184 215.496 107.504 216.152 108.144 216.632C108.8 217.112 109.704 217.352 110.856 217.352C112.024 217.352 112.936 217.112 113.592 216.632C114.264 216.152 114.6 215.496 114.6 214.664C114.6 213.832 114.256 213.176 113.568 212.696C112.896 212.2 111.992 211.952 110.856 211.952ZM110.856 225.248C112.184 225.248 113.232 224.976 114 224.432C114.768 223.872 115.152 223.12 115.152 222.176C115.152 221.248 114.768 220.52 114 219.992C113.232 219.448 112.184 219.176 110.856 219.176C109.528 219.176 108.488 219.448 107.736 219.992C106.984 220.52 106.608 221.248 106.608 222.176C106.608 223.12 106.984 223.872 107.736 224.432C108.488 224.976 109.528 225.248 110.856 225.248ZM126.614 227.192C125.286 227.192 124.102 226.856 123.062 226.184C122.038 225.496 121.23 224.504 120.638 223.208C120.046 221.912 119.75 220.376 119.75 218.6C119.75 216.824 120.046 215.288 120.638 213.992C121.23 212.696 122.038 211.712 123.062 211.04C124.102 210.352 125.286 210.008 126.614 210.008C127.926 210.008 129.094 210.352 130.118 211.04C131.158 211.712 131.974 212.696 132.566 213.992C133.158 215.288 133.454 216.824 133.454 218.6C133.454 220.376 133.158 221.912 132.566 223.208C131.974 224.504 131.158 225.496 130.118 226.184C129.094 226.856 127.926 227.192 126.614 227.192ZM126.614 225.056C127.958 225.056 129.03 224.504 129.83 223.4C130.646 222.296 131.054 220.696 131.054 218.6C131.054 216.504 130.646 214.904 129.83 213.8C129.03 212.696 127.958 212.144 126.614 212.144C125.254 212.144 124.166 212.696 123.35 213.8C122.55 214.904 122.15 216.504 122.15 218.6C122.15 220.696 122.55 222.296 123.35 223.4C124.166 224.504 125.254 225.056 126.614 225.056ZM144.547 227L140.875 222.128L137.155 227H134.587L139.603 220.496L134.827 214.28H137.395L140.899 218.864L144.379 214.28H146.899L142.099 220.496L147.163 227H144.547ZM162.327 222.872H159.135V227H156.807V222.872H147.471V221.192L156.063 210.2H158.655L150.423 220.808H156.879V217.16H159.135V220.808H162.327V222.872ZM170.629 227.192C169.301 227.192 168.117 226.856 167.077 226.184C166.053 225.496 165.245 224.504 164.653 223.208C164.061 221.912 163.765 220.376 163.765 218.6C163.765 216.824 164.061 215.288 164.653 213.992C165.245 212.696 166.053 211.712 167.077 211.04C168.117 210.352 169.301 210.008 170.629 210.008C171.941 210.008 173.109 210.352 174.133 211.04C175.173 211.712 175.989 212.696 176.581 213.992C177.173 215.288 177.469 216.824 177.469 218.6C177.469 220.376 177.173 221.912 176.581 223.208C175.989 224.504 175.173 225.496 174.133 226.184C173.109 226.856 171.941 227.192 170.629 227.192ZM170.629 225.056C171.973 225.056 173.045 224.504 173.845 223.4C174.661 222.296 175.069 220.696 175.069 218.6C175.069 216.504 174.661 214.904 173.845 213.8C173.045 212.696 171.973 212.144 170.629 212.144C169.269 212.144 168.181 212.696 167.365 213.8C166.565 214.904 166.165 216.504 166.165 218.6C166.165 220.696 166.565 222.296 167.365 223.4C168.181 224.504 169.269 225.056 170.629 225.056ZM186.637 227.192C185.309 227.192 184.125 226.856 183.085 226.184C182.061 225.496 181.253 224.504 180.661 223.208C180.069 221.912 179.773 220.376 179.773 218.6C179.773 216.824 180.069 215.288 180.661 213.992C181.253 212.696 182.061 211.712 183.085 211.04C184.125 210.352 185.309 210.008 186.637 210.008C187.949 210.008 189.117 210.352 190.141 211.04C191.181 211.712 191.997 212.696 192.589 213.992C193.181 215.288 193.477 216.824 193.477 218.6C193.477 220.376 193.181 221.912 192.589 223.208C191.997 224.504 191.181 225.496 190.141 226.184C189.117 226.856 187.949 227.192 186.637 227.192ZM186.637 225.056C187.981 225.056 189.053 224.504 189.853 223.4C190.669 222.296 191.077 220.696 191.077 218.6C191.077 216.504 190.669 214.904 189.853 213.8C189.053 212.696 187.981 212.144 186.637 212.144C185.277 212.144 184.189 212.696 183.373 213.8C182.573 214.904 182.173 216.504 182.173 218.6C182.173 220.696 182.573 222.296 183.373 223.4C184.189 224.504 185.277 225.056 186.637 225.056Z" fill="white"/>
</svg>
